<svg width="8" height="15" viewBox="0 0 8 15" fill="none" xmlns="http://www.w3.org/2000/svg">
<path d="M3.11111 8.77215V13.0315L3.72278 13.9291C3.85472 14.1226 4.14556 14.1226 4.2775 13.9291L4.88889 13.0315V8.77215C4.60028 8.82434 4.30389 8.85533 4 8.85533C3.69611 8.85533 3.39972 8.82434 3.11111 8.77215ZM4 0.156738C1.79083 0.156738 0 1.90923 0 4.07111C0 6.23298 1.79083 7.98547 4 7.98547C6.20917 7.98547 8 6.23298 8 4.07111C8 1.90923 6.20917 0.156738 4 0.156738ZM4 2.22265C2.95833 2.22265 2.11111 3.05174 2.11111 4.07111C2.11111 4.25106 1.96167 4.3973 1.77778 4.3973C1.59389 4.3973 1.44444 4.25106 1.44444 4.07111C1.44444 2.69211 2.59111 1.57026 4 1.57026C4.18389 1.57026 4.33333 1.71651 4.33333 1.89646C4.33333 2.07641 4.18389 2.22265 4 2.22265Z" fill="white"/>
</svg>
