<svg width="43" height="43" viewBox="0 0 43 43" fill="none" xmlns="http://www.w3.org/2000/svg">
<path d="M21.32 1.03174C32.6438 1.03174 41.8201 10.158 41.8201 21.408C41.8201 32.6581 32.644 41.7842 21.3201 41.7842C9.9963 41.7842 0.820068 32.6579 0.820068 21.408C0.820068 10.1581 9.99489 1.03174 21.32 1.03174Z" stroke="#1A2B49"/>
<path d="M27.7103 12.2222H15.8241C13.7589 12.2222 12.0801 13.8922 12.0801 15.9442V27.7618C12.0801 29.8149 13.76 31.4839 15.8241 31.4839H27.7114C29.7766 31.4839 31.4554 29.8138 31.4554 27.7618V15.9442C31.4553 13.8922 29.7754 12.2222 27.7103 12.2222ZM28.8898 14.3758L29.3138 14.3748V17.5715L26.0746 17.5822L26.0638 14.3854L28.8898 14.3758ZM21.7678 18.6306C24.455 18.6306 25.0091 21.1383 25.0091 21.854C25.0091 23.6288 23.5542 25.0753 21.7678 25.0753C19.9803 25.0753 18.5264 23.6288 18.5264 21.854C18.5252 21.1383 19.0806 18.6306 21.7678 18.6306ZM29.3321 27.5286C29.3321 28.546 28.5003 29.3741 27.4747 29.3741H16.0242C14.9997 29.3741 14.1668 28.5471 14.1668 27.5286V19.709H16.8571C16.6075 20.3199 16.4664 21.1544 16.4664 21.8541C16.4664 24.7577 18.8426 27.121 21.7645 27.121C24.6863 27.121 27.0613 24.7577 27.0613 21.8541C27.0613 21.1544 26.9203 20.3199 26.6717 19.709H29.3298V27.5286H29.3321Z" fill="white"/>
</svg>
