<svg width="16" height="17" viewBox="0 0 16 17" fill="none" xmlns="http://www.w3.org/2000/svg">
<path d="M15.1172 13.3853L12.7435 11.0256C12.0772 10.3632 10.9969 10.3632 10.3305 11.0256L9.95915 11.3948C9.66028 11.6912 9.45262 12.0661 9.36049 12.4756C8.5559 12.4906 7.64599 12.3546 6.86774 11.8527C6.38972 11.4995 5.93832 11.112 5.51715 10.6933C5.16136 10.3398 4.82775 9.96495 4.51821 9.5708C3.91168 8.76075 3.75162 7.7777 3.7678 6.91612C4.17979 6.82455 4.55697 6.61811 4.85512 6.32101L5.22649 5.95183C5.8928 5.28947 5.8928 4.21555 5.22649 3.55315L2.85277 1.1935C2.40855 0.751908 1.68833 0.751908 1.24415 1.1935L0.836616 1.59871C0.314179 2.11805 0.046741 2.79446 0.0328348 3.47506C-0.100946 4.91103 0.17571 6.4918 0.832929 8.04651C1.26687 9.07302 1.86265 10.0753 2.58824 11.007C2.5974 11.0191 2.60608 11.0315 2.61537 11.0436L2.61643 11.0428C2.98688 11.5152 3.3863 11.9645 3.8124 12.388C4.25277 12.8261 4.72066 13.236 5.21324 13.6152L5.20849 13.6214C5.29056 13.6833 5.37426 13.743 5.45952 13.8004C7.53018 15.3229 9.87059 16.1783 12.0485 16.1782C12.1757 16.1781 12.3025 16.1745 12.4286 16.1686C13.2399 16.2678 14.0869 16.0086 14.7096 15.3896L15.1172 14.9844C15.5614 14.5428 15.5614 13.8268 15.1172 13.3853Z" fill="white"/>
</svg>
