<svg width="15" height="15" viewBox="0 0 15 15" fill="none" xmlns="http://www.w3.org/2000/svg">
<path d="M13.7505 12.6866C13.6695 12.501 9.2707 9.88398 9.26602 9.88069C8.64539 9.42437 8.56922 8.98046 9.07008 8.72546C9.49969 8.50679 9.86883 7.8046 10.147 7.05272C10.1968 7.07546 10.2532 7.07945 10.3057 7.06397C11.4741 6.72272 11.4952 4.36444 10.7135 4.7814C11.4441 -1.5922 2.61938 -1.59548 3.34945 4.78163C2.56758 4.36421 2.58867 6.72272 3.75727 7.06397C3.8097 7.0793 3.86589 7.07539 3.9157 7.05296C4.19367 7.8046 4.56258 8.50679 4.99195 8.72546C5.4968 8.9821 5.39719 9.40421 4.78406 9.8903C4.57992 10.0523 1.73133 11.6399 0.927891 12.1773C0.926417 12.178 0.925005 12.1788 0.923672 12.1797H0.924141C0.592266 12.4019 0.356016 12.5868 0.312656 12.6866C0.0832032 13.2149 0 14.0626 0 14.0626H14.0627C14.0627 14.0626 13.9798 13.2149 13.7505 12.6866Z" fill="#03A8AE"/>
</svg>
