<svg width="42" height="43" viewBox="0 0 42 43" fill="none" xmlns="http://www.w3.org/2000/svg">
<path d="M20.9999 1.03174C32.3252 1.03174 41.5 10.158 41.5 21.408C41.5 32.6594 32.3252 41.7842 20.9999 41.7842C9.67465 41.7842 0.5 32.6592 0.5 21.408C0.5 10.158 9.67482 1.03174 20.9999 1.03174Z" stroke="#1A2B49"/>
<path d="M30.5326 15.7889C29.7804 16.1119 28.971 16.3291 28.122 16.4276C28.9895 15.9258 29.6545 15.133 29.9677 14.1863C29.1563 14.6517 28.2587 14.9887 27.302 15.1695C26.5368 14.3832 25.4467 13.8921 24.2392 13.8921C21.9234 13.8921 20.0444 15.7033 20.0444 17.9392C20.0444 18.2569 20.081 18.5661 20.153 18.8625C16.6662 18.6935 13.5734 17.0812 11.505 14.6324C11.1434 15.2305 10.9368 15.9247 10.9368 16.6672C10.9368 18.0708 11.6771 19.3117 12.8029 20.0361C12.1141 20.0147 11.4684 19.8338 10.9013 19.529V19.5804C10.9013 21.5424 12.3476 23.1782 14.2675 23.5505C13.9156 23.6425 13.5453 23.6928 13.1622 23.6928C12.8921 23.6928 12.6296 23.6682 12.3734 23.62C12.9071 25.229 14.4569 26.3994 16.2939 26.4316C14.8573 27.5185 13.0481 28.1647 11.082 28.1647C10.743 28.1647 10.4094 28.1454 10.0801 28.108C11.9386 29.257 14.1427 29.9277 16.5134 29.9277C24.2317 29.9277 28.4524 23.7571 28.4524 18.4079L28.4406 17.8837C29.2584 17.3145 29.9698 16.602 30.5326 15.7889Z" fill="white"/>
</svg>
